<svg xmlns="http://www.w3.org/2000/svg" viewBox="0 0 1200 1500" width="1200" height="1500" font-family="-apple-system, 'SF Pro Text', 'Helvetica Neue', Arial, sans-serif">
<defs><filter id="glow" x="-60%" y="-60%" width="220%" height="220%"><feGaussianBlur stdDeviation="9"/></filter><radialGradient id="g-lagoon" cx="36%" cy="30%" r="78%"><stop offset="0" stop-color="#B8F4EA"/><stop offset=".28" stop-color="#56DCCB"/><stop offset=".58" stop-color="#1FBFB2"/><stop offset=".84" stop-color="#0E9594"/><stop offset="1" stop-color="#0B6E73"/></radialGradient><radialGradient id="g-sunrise" cx="36%" cy="30%" r="78%"><stop offset="0" stop-color="#FFE3A3"/><stop offset=".28" stop-color="#FBBF4A"/><stop offset=".58" stop-color="#F79A5A"/><stop offset=".84" stop-color="#F2726F"/><stop offset="1" stop-color="#E8505B"/></radialGradient><radialGradient id="g-forest" cx="36%" cy="30%" r="78%"><stop offset="0" stop-color="#D5EBA4"/><stop offset=".28" stop-color="#9CC25E"/><stop offset=".58" stop-color="#6FA046"/><stop offset=".84" stop-color="#4C7D3A"/><stop offset="1" stop-color="#2F5D34"/></radialGradient><radialGradient id="g-ocean" cx="36%" cy="30%" r="78%"><stop offset="0" stop-color="#BFE6FA"/><stop offset=".28" stop-color="#5DBBE8"/><stop offset=".58" stop-color="#2B93CF"/><stop offset=".84" stop-color="#1C6BA8"/><stop offset="1" stop-color="#15457E"/></radialGradient><radialGradient id="g-dusk" cx="36%" cy="30%" r="78%"><stop offset="0" stop-color="#F4A7B9"/><stop offset=".28" stop-color="#C8649E"/><stop offset=".58" stop-color="#8C4FB0"/><stop offset=".84" stop-color="#5B3E9E"/><stop offset="1" stop-color="#2E2A7A"/></radialGradient><radialGradient id="g-blossom" cx="36%" cy="30%" r="78%"><stop offset="0" stop-color="#FFD6E0"/><stop offset=".28" stop-color="#F49BB8"/><stop offset=".58" stop-color="#E8699A"/><stop offset=".84" stop-color="#CF3F78"/><stop offset="1" stop-color="#A3245B"/></radialGradient></defs>
<rect width="1200" height="1500" fill="#fff"/>
<text x="60" y="62" font-size="30" font-weight="700" fill="#111">AgentX desktop character: pose sheet, first example</text>
<text x="60" y="90" font-size="15" fill="#555">The orb, grown into a small creature. Same round body, the agent's own colours, two eyes, no mouth. It reacts, it never interrupts.</text>
<text x="60" y="128" font-size="15" font-weight="700" fill="#1F6FEB" letter-spacing="1.2">WHAT IT SHOWS</text><path d="M60,138 H1140" stroke="#E3E8EE" stroke-width="1.5"/>
<ellipse cx="200" cy="270.0" rx="34.0" ry="5.0" fill="#0F2233" opacity=".13"/><g transform="translate(200,265.0) scale(1.0) rotate(0)"><ellipse cx="0" cy="-50.0" rx="57.0" ry="57.0" fill="#1FBFB2" opacity=".30" filter="url(#glow)"/><ellipse cx="0" cy="-50.0" rx="50.0" ry="50.0" fill="url(#g-lagoon)"/><ellipse cx="-17.0" cy="-74.0" rx="13.0" ry="8.0" fill="#fff" opacity=".35" transform="rotate(-24 -17.0 -74.0)"/><ellipse cx="-15.0" cy="-48.0" rx="6.5" ry="9.5" fill="#0F2233"/><circle cx="-12.8" cy="-51.4" r="2.2" fill="#fff"/><ellipse cx="15.0" cy="-48.0" rx="6.5" ry="9.5" fill="#0F2233"/><circle cx="17.2" cy="-51.4" r="2.2" fill="#fff"/></g><text x="200" y="315" text-anchor="middle" font-size="17" font-weight="600" fill="#111">Idle</text><text x="200" y="336" text-anchor="middle" font-size="13" fill="#555">breathes slowly, blinks now and then</text><ellipse cx="600" cy="270.0" rx="34.0" ry="5.0" fill="#0F2233" opacity=".13"/><g transform="translate(600,265.0) scale(1.0) rotate(0)"><ellipse cx="0" cy="-54.0" rx="54.0" ry="61.0" fill="#1FBFB2" opacity=".30" filter="url(#glow)"/><ellipse cx="0" cy="-54.0" rx="47.0" ry="54.0" fill="url(#g-lagoon)"/><ellipse cx="-15.979999999999999" cy="-79.92" rx="12.219999999999999" ry="8.64" fill="#fff" opacity=".35" transform="rotate(-24 -15.979999999999999 -79.92)"/><ellipse cx="-14.1" cy="-54.84" rx="8" ry="11.5" fill="#0F2233"/><circle cx="-11.3" cy="-59.040000000000006" r="2.8" fill="#fff"/><ellipse cx="14.1" cy="-54.84" rx="8" ry="11.5" fill="#0F2233"/><circle cx="16.9" cy="-59.040000000000006" r="2.8" fill="#fff"/></g><text x="600" y="315" text-anchor="middle" font-size="17" font-weight="600" fill="#111">Notices you</text><text x="600" y="336" text-anchor="middle" font-size="13" fill="#555">you start talking: it stretches up and looks at you</text><ellipse cx="1000" cy="270.0" rx="34.0" ry="5.0" fill="#0F2233" opacity=".13"/><g transform="translate(1000,265.0) scale(1.0) rotate(-9)"><ellipse cx="0" cy="-50.0" rx="57.0" ry="57.0" fill="#1FBFB2" opacity=".30" filter="url(#glow)"/><ellipse cx="0" cy="-50.0" rx="50.0" ry="50.0" fill="url(#g-lagoon)"/><ellipse cx="-17.0" cy="-74.0" rx="13.0" ry="8.0" fill="#fff" opacity=".35" transform="rotate(-24 -17.0 -74.0)"/><ellipse cx="-17.0" cy="-49.0" rx="6.5" ry="9.5" fill="#0F2233"/><circle cx="-14.8" cy="-52.4" r="2.2" fill="#fff"/><ellipse cx="13.0" cy="-49.0" rx="6.5" ry="9.5" fill="#0F2233"/><circle cx="15.2" cy="-52.4" r="2.2" fill="#fff"/></g><path d="M922,200 a9,9 0 0 0 0,18" fill="none" stroke="#1FBFB2" stroke-width="3" stroke-linecap="round" opacity="0.85"/><path d="M922,191 a18,18 0 0 0 0,36" fill="none" stroke="#1FBFB2" stroke-width="3" stroke-linecap="round" opacity="0.6"/><path d="M922,182 a27,27 0 0 0 0,54" fill="none" stroke="#1FBFB2" stroke-width="3" stroke-linecap="round" opacity="0.35"/><text x="1000" y="315" text-anchor="middle" font-size="17" font-weight="600" fill="#111">Listening</text><text x="1000" y="336" text-anchor="middle" font-size="13" fill="#555">leans in; the rings follow your voice</text><ellipse cx="200" cy="540.0" rx="34.0" ry="5.0" fill="#0F2233" opacity=".13"/><g transform="translate(200,535.0) scale(1.0) rotate(0)"><ellipse cx="0" cy="-48.0" rx="58.5" ry="55.0" fill="#1FBFB2" opacity=".30" filter="url(#glow)"/><ellipse cx="0" cy="-48.0" rx="51.5" ry="48.0" fill="url(#g-lagoon)"/><ellipse cx="-17.51" cy="-71.03999999999999" rx="13.39" ry="7.68" fill="#fff" opacity=".35" transform="rotate(-24 -17.51 -71.03999999999999)"/><path d="M-25.950000000000003,-41.08 a6.5,7 0 0 0 13,0 z" fill="#0F2233"/><path d="M-27.450000000000003,-41.08 h16" stroke="#0F2233" stroke-width="2.6" stroke-linecap="round"/><path d="M4.950000000000001,-41.08 a6.5,7 0 0 0 13,0 z" fill="#0F2233"/><path d="M3.450000000000001,-41.08 h16" stroke="#0F2233" stroke-width="2.6" stroke-linecap="round"/></g><circle cx="262" cy="427" r="4.0" fill="#0E9594" opacity="0.45"/><circle cx="279" cy="418" r="5.6" fill="#0E9594" opacity="0.7"/><circle cx="296" cy="409" r="7.2" fill="#0E9594" opacity="0.95"/><text x="200" y="585" text-anchor="middle" font-size="17" font-weight="600" fill="#111">Working</text><text x="200" y="606" text-anchor="middle" font-size="13" fill="#555">looks down at its work, eyes half closed</text><ellipse cx="600" cy="540.0" rx="28.333333333333336" ry="5.0" fill="#0F2233" opacity=".13"/><g transform="translate(600,525.0) scale(1.0) rotate(0)"><ellipse cx="0" cy="-52.0" rx="55.5" ry="59.0" fill="#1FBFB2" opacity=".30" filter="url(#glow)"/><ellipse cx="0" cy="-52.0" rx="48.5" ry="52.0" fill="url(#g-lagoon)"/><ellipse cx="-16.49" cy="-76.96000000000001" rx="12.61" ry="8.32" fill="#fff" opacity=".35" transform="rotate(-24 -16.49 -76.96000000000001)"/><ellipse cx="-14.549999999999999" cy="-50.92" rx="6.5" ry="9.5" fill="#0F2233"/><circle cx="-12.349999999999998" cy="-54.32" r="2.2" fill="#fff"/><ellipse cx="14.549999999999999" cy="-50.92" rx="6.5" ry="9.5" fill="#0F2233"/><circle cx="16.75" cy="-54.32" r="2.2" fill="#fff"/></g><path d="M674,462 a9,9 0 0 1 0,18" fill="none" stroke="#1FBFB2" stroke-width="3" stroke-linecap="round" opacity="0.85"/><path d="M674,453 a18,18 0 0 1 0,36" fill="none" stroke="#1FBFB2" stroke-width="3" stroke-linecap="round" opacity="0.6"/><path d="M674,444 a27,27 0 0 1 0,54" fill="none" stroke="#1FBFB2" stroke-width="3" stroke-linecap="round" opacity="0.35"/><text x="600" y="585" text-anchor="middle" font-size="17" font-weight="600" fill="#111">Speaking</text><text x="600" y="606" text-anchor="middle" font-size="13" fill="#555">a small bounce with each sentence</text><ellipse cx="1000" cy="540.0" rx="34.0" ry="5.0" fill="#0F2233" opacity=".13"/><g transform="translate(1000,535.0) scale(1.0) rotate(0)"><ellipse cx="0" cy="-45.0" rx="60.5" ry="52.0" fill="#1FBFB2" opacity=".30" filter="url(#glow)"/><ellipse cx="0" cy="-45.0" rx="53.5" ry="45.0" fill="url(#g-lagoon)"/><ellipse cx="-18.19" cy="-66.6" rx="13.91" ry="7.2" fill="#fff" opacity=".35" transform="rotate(-24 -18.19 -66.6)"/><path d="M-23.05,-40.2 q7,-11 14,0" fill="none" stroke="#0F2233" stroke-width="3.4" stroke-linecap="round"/><path d="M9.05,-40.2 q7,-11 14,0" fill="none" stroke="#0F2233" stroke-width="3.4" stroke-linecap="round"/></g><text x="1000" y="585" text-anchor="middle" font-size="17" font-weight="600" fill="#111">Understood</text><text x="1000" y="606" text-anchor="middle" font-size="13" fill="#555">a nod: eyes smile, body dips</text><ellipse cx="200" cy="810.0" rx="34.0" ry="5.0" fill="#0F2233" opacity=".13"/><g transform="translate(200,805.0) scale(1.0) rotate(0)"><ellipse cx="0" cy="-40.0" rx="63.99999999999999" ry="47.0" fill="#1FBFB2" opacity=".30" filter="url(#glow)"/><ellipse cx="0" cy="-40.0" rx="56.99999999999999" ry="40.0" fill="url(#g-lagoon)"/><ellipse cx="-19.38" cy="-59.2" rx="14.819999999999999" ry="6.4" fill="#fff" opacity=".35" transform="rotate(-24 -19.38 -59.2)"/><path d="M-24.099999999999998,-38.4 q7,7 14,0" fill="none" stroke="#0F2233" stroke-width="3" stroke-linecap="round"/><path d="M10.099999999999998,-38.4 q7,7 14,0" fill="none" stroke="#0F2233" stroke-width="3" stroke-linecap="round"/></g><text x="256" y="723" font-size="20" font-weight="700" fill="#0E9594" opacity=".9">z</text><text x="272" y="703" font-size="15" font-weight="700" fill="#0E9594" opacity=".6">z</text><text x="200" y="855" text-anchor="middle" font-size="17" font-weight="600" fill="#111">Dozing</text><text x="200" y="876" text-anchor="middle" font-size="13" fill="#555">idle for a while: settles and sleeps</text><ellipse cx="600" cy="810.0" rx="22.666666666666668" ry="5.0" fill="#0F2233" opacity=".13"/><g transform="translate(600,785.0) scale(1.0) rotate(0)"><ellipse cx="0" cy="-53.0" rx="54.5" ry="60.0" fill="#1FBFB2" opacity=".30" filter="url(#glow)"/><ellipse cx="0" cy="-53.0" rx="47.5" ry="53.0" fill="url(#g-lagoon)"/><ellipse cx="-16.15" cy="-78.44" rx="12.35" ry="8.48" fill="#fff" opacity=".35" transform="rotate(-24 -16.15 -78.44)"/><ellipse cx="-14.25" cy="-50.88" rx="8" ry="11.5" fill="#0F2233"/><circle cx="-11.45" cy="-55.080000000000005" r="2.8" fill="#fff"/><ellipse cx="14.25" cy="-50.88" rx="8" ry="11.5" fill="#0F2233"/><circle cx="17.05" cy="-55.080000000000005" r="2.8" fill="#fff"/></g><path d="M676,720 a9,9 0 0 1 0,18" fill="none" stroke="#0E9594" stroke-width="3" stroke-linecap="round" opacity="0.85"/><path d="M676,711 a18,18 0 0 1 0,36" fill="none" stroke="#0E9594" stroke-width="3" stroke-linecap="round" opacity="0.6"/><path d="M524,720 a9,9 0 0 0 0,18" fill="none" stroke="#0E9594" stroke-width="3" stroke-linecap="round" opacity="0.85"/><path d="M524,711 a18,18 0 0 0 0,36" fill="none" stroke="#0E9594" stroke-width="3" stroke-linecap="round" opacity="0.6"/><text x="600" y="855" text-anchor="middle" font-size="17" font-weight="600" fill="#111">An agent is calling</text><text x="600" y="876" text-anchor="middle" font-size="13" fill="#555">hops and rings on both sides</text><ellipse cx="1000" cy="810.0" rx="34.0" ry="5.0" fill="#0F2233" opacity=".13"/><g transform="translate(1000,805.0) scale(1.0) rotate(11)"><ellipse cx="0" cy="-50.0" rx="57.0" ry="57.0" fill="#1FBFB2" opacity=".30" filter="url(#glow)"/><ellipse cx="0" cy="-50.0" rx="50.0" ry="50.0" fill="url(#g-lagoon)"/><ellipse cx="-17.0" cy="-74.0" rx="13.0" ry="8.0" fill="#fff" opacity=".35" transform="rotate(-24 -17.0 -74.0)"/><ellipse cx="-12.0" cy="-51.0" rx="6.5" ry="9.5" fill="#0F2233"/><circle cx="-9.8" cy="-54.4" r="2.2" fill="#fff"/><ellipse cx="18.0" cy="-51.0" rx="6.5" ry="9.5" fill="#0F2233"/><circle cx="20.2" cy="-54.4" r="2.2" fill="#fff"/></g><circle cx="1062" cy="693" r="15" fill="#fff" stroke="#0B6E73" stroke-width="2.5"/><text x="1062" y="700" text-anchor="middle" font-size="20" font-weight="700" fill="#0B6E73">?</text><text x="1000" y="855" text-anchor="middle" font-size="17" font-weight="600" fill="#111">Needs your answer</text><text x="1000" y="876" text-anchor="middle" font-size="13" fill="#555">tilts its head and waits, never interrupts</text>
<text x="60" y="970" font-size="15" font-weight="700" fill="#1F6FEB" letter-spacing="1.2">MOVING AROUND WHEN IDLE</text><path d="M60,980 H1140" stroke="#E3E8EE" stroke-width="1.5"/>
<ellipse cx="180" cy="1110.0" rx="24.480000000000004" ry="4.0" fill="#0F2233" opacity=".13"/><g transform="translate(180,1099.0) scale(0.8) rotate(4)"><ellipse cx="-20" cy="-3" rx="11" ry="6" fill="#0B6E73"/><ellipse cx="16" cy="-9" rx="11" ry="6" fill="#0B6E73"/><ellipse cx="0" cy="-51.0" rx="56.0" ry="58.0" fill="#1FBFB2" opacity=".30" filter="url(#glow)"/><ellipse cx="0" cy="-51.0" rx="49.0" ry="51.0" fill="url(#g-lagoon)"/><ellipse cx="-16.66" cy="-75.48" rx="12.74" ry="8.16" fill="#fff" opacity=".35" transform="rotate(-24 -16.66 -75.48)"/><ellipse cx="-10.7" cy="-48.96" rx="6.5" ry="9.5" fill="#0F2233"/><circle cx="-8.5" cy="-52.36" r="2.2" fill="#fff"/><ellipse cx="18.7" cy="-48.96" rx="6.5" ry="9.5" fill="#0F2233"/><circle cx="20.9" cy="-52.36" r="2.2" fill="#fff"/></g><text x="180" y="1137" text-anchor="middle" font-size="13" fill="#555">frame 1</text><ellipse cx="360" cy="1110.0" rx="22.213333333333335" ry="4.0" fill="#0F2233" opacity=".13"/><g transform="translate(360,1094.0) scale(0.8) rotate(2)"><ellipse cx="-8" cy="-5" rx="11" ry="6" fill="#0B6E73"/><ellipse cx="8" cy="-5" rx="11" ry="6" fill="#0B6E73"/><ellipse cx="0" cy="-52.5" rx="55.0" ry="59.5" fill="#1FBFB2" opacity=".30" filter="url(#glow)"/><ellipse cx="0" cy="-52.5" rx="48.0" ry="52.5" fill="url(#g-lagoon)"/><ellipse cx="-16.32" cy="-77.7" rx="12.48" ry="8.4" fill="#fff" opacity=".35" transform="rotate(-24 -16.32 -77.7)"/><ellipse cx="-10.399999999999999" cy="-50.4" rx="6.5" ry="9.5" fill="#0F2233"/><circle cx="-8.2" cy="-53.8" r="2.2" fill="#fff"/><ellipse cx="18.4" cy="-50.4" rx="6.5" ry="9.5" fill="#0F2233"/><circle cx="20.599999999999998" cy="-53.8" r="2.2" fill="#fff"/></g><text x="360" y="1137" text-anchor="middle" font-size="13" fill="#555">frame 2</text><ellipse cx="540" cy="1110.0" rx="24.480000000000004" ry="4.0" fill="#0F2233" opacity=".13"/><g transform="translate(540,1099.0) scale(0.8) rotate(4)"><ellipse cx="-16" cy="-9" rx="11" ry="6" fill="#0B6E73"/><ellipse cx="20" cy="-3" rx="11" ry="6" fill="#0B6E73"/><ellipse cx="0" cy="-51.0" rx="56.0" ry="58.0" fill="#1FBFB2" opacity=".30" filter="url(#glow)"/><ellipse cx="0" cy="-51.0" rx="49.0" ry="51.0" fill="url(#g-lagoon)"/><ellipse cx="-16.66" cy="-75.48" rx="12.74" ry="8.16" fill="#fff" opacity=".35" transform="rotate(-24 -16.66 -75.48)"/><ellipse cx="-10.7" cy="-48.96" rx="6.5" ry="9.5" fill="#0F2233"/><circle cx="-8.5" cy="-52.36" r="2.2" fill="#fff"/><ellipse cx="18.7" cy="-48.96" rx="6.5" ry="9.5" fill="#0F2233"/><circle cx="20.9" cy="-52.36" r="2.2" fill="#fff"/></g><text x="540" y="1137" text-anchor="middle" font-size="13" fill="#555">frame 3</text><ellipse cx="720" cy="1110.0" rx="26.293333333333337" ry="4.0" fill="#0F2233" opacity=".13"/><g transform="translate(720,1103.0) scale(0.8) rotate(1)"><ellipse cx="-8" cy="-5" rx="11" ry="6" fill="#0B6E73"/><ellipse cx="8" cy="-5" rx="11" ry="6" fill="#0B6E73"/><ellipse cx="0" cy="-47.5" rx="59.0" ry="54.5" fill="#1FBFB2" opacity=".30" filter="url(#glow)"/><ellipse cx="0" cy="-47.5" rx="52.0" ry="47.5" fill="url(#g-lagoon)"/><ellipse cx="-17.68" cy="-70.3" rx="13.52" ry="7.6" fill="#fff" opacity=".35" transform="rotate(-24 -17.68 -70.3)"/><ellipse cx="-11.600000000000001" cy="-45.6" rx="6.5" ry="9.5" fill="#0F2233"/><circle cx="-9.400000000000002" cy="-49.0" r="2.2" fill="#fff"/><ellipse cx="19.6" cy="-45.6" rx="6.5" ry="9.5" fill="#0F2233"/><circle cx="21.8" cy="-49.0" r="2.2" fill="#fff"/></g><text x="720" y="1137" text-anchor="middle" font-size="13" fill="#555">frame 4</text><path d="M100,1110 H800" stroke="#D9DEE3" stroke-width="2"/><ellipse cx="1000" cy="1110.0" rx="27.200000000000003" ry="4.0" fill="#0F2233" opacity=".13"/><g transform="translate(1000,1105.0) scale(0.8) rotate(-3)"><ellipse cx="0" cy="-48.5" rx="58.0" ry="55.5" fill="#1FBFB2" opacity=".30" filter="url(#glow)"/><ellipse cx="0" cy="-48.5" rx="51.0" ry="48.5" fill="url(#g-lagoon)"/><ellipse cx="-17.34" cy="-71.78" rx="13.26" ry="7.76" fill="#fff" opacity=".35" transform="rotate(-24 -17.34 -71.78)"/><path d="M-25.8,-44.56 a6.5,7 0 0 0 13,0 z" fill="#0F2233"/><path d="M-27.3,-44.56 h16" stroke="#0F2233" stroke-width="2.6" stroke-linecap="round"/><path d="M4.800000000000001,-44.56 a6.5,7 0 0 0 13,0 z" fill="#0F2233"/><path d="M3.3000000000000007,-44.56 h16" stroke="#0F2233" stroke-width="2.6" stroke-linecap="round"/></g><text x="1000" y="1137" text-anchor="middle" font-size="13" fill="#555">steps aside for the pointer</text>
<text x="60" y="1215" font-size="15" font-weight="700" fill="#1F6FEB" letter-spacing="1.2">EACH AGENT KEEPS ITS OWN COLOURS</text><path d="M60,1225 H1140" stroke="#E3E8EE" stroke-width="1.5"/>
<ellipse cx="150" cy="1371.0" rx="24.48" ry="3.5999999999999996" fill="#0F2233" opacity=".13"/><g transform="translate(150,1366.0) scale(0.72) rotate(0)"><ellipse cx="0" cy="-50.0" rx="57.0" ry="57.0" fill="#1FBFB2" opacity=".30" filter="url(#glow)"/><ellipse cx="0" cy="-50.0" rx="50.0" ry="50.0" fill="url(#g-lagoon)"/><ellipse cx="-17.0" cy="-74.0" rx="13.0" ry="8.0" fill="#fff" opacity=".35" transform="rotate(-24 -17.0 -74.0)"/><ellipse cx="-15.0" cy="-48.0" rx="6.5" ry="9.5" fill="#0F2233"/><circle cx="-12.8" cy="-51.4" r="2.2" fill="#fff"/><ellipse cx="15.0" cy="-48.0" rx="6.5" ry="9.5" fill="#0F2233"/><circle cx="17.2" cy="-51.4" r="2.2" fill="#fff"/></g><text x="150" y="1398" text-anchor="middle" font-size="14" fill="#333">Lagoon</text><ellipse cx="330" cy="1371.0" rx="24.48" ry="3.5999999999999996" fill="#0F2233" opacity=".13"/><g transform="translate(330,1366.0) scale(0.72) rotate(0)"><ellipse cx="0" cy="-50.0" rx="57.0" ry="57.0" fill="#F79A5A" opacity=".30" filter="url(#glow)"/><ellipse cx="0" cy="-50.0" rx="50.0" ry="50.0" fill="url(#g-sunrise)"/><ellipse cx="-17.0" cy="-74.0" rx="13.0" ry="8.0" fill="#fff" opacity=".35" transform="rotate(-24 -17.0 -74.0)"/><path d="M-22.0,-45.0 q7,-11 14,0" fill="none" stroke="#0F2233" stroke-width="3.4" stroke-linecap="round"/><path d="M8.0,-45.0 q7,-11 14,0" fill="none" stroke="#0F2233" stroke-width="3.4" stroke-linecap="round"/></g><text x="330" y="1398" text-anchor="middle" font-size="14" fill="#333">Sunrise</text><ellipse cx="510" cy="1371.0" rx="24.48" ry="3.5999999999999996" fill="#0F2233" opacity=".13"/><g transform="translate(510,1366.0) scale(0.72) rotate(0)"><ellipse cx="0" cy="-50.0" rx="57.0" ry="57.0" fill="#6FA046" opacity=".30" filter="url(#glow)"/><ellipse cx="0" cy="-50.0" rx="50.0" ry="50.0" fill="url(#g-forest)"/><ellipse cx="-17.0" cy="-74.0" rx="13.0" ry="8.0" fill="#fff" opacity=".35" transform="rotate(-24 -17.0 -74.0)"/><ellipse cx="-15.0" cy="-48.0" rx="6.5" ry="9.5" fill="#0F2233"/><circle cx="-12.8" cy="-51.4" r="2.2" fill="#fff"/><ellipse cx="15.0" cy="-48.0" rx="6.5" ry="9.5" fill="#0F2233"/><circle cx="17.2" cy="-51.4" r="2.2" fill="#fff"/></g><text x="510" y="1398" text-anchor="middle" font-size="14" fill="#333">Forest</text><ellipse cx="690" cy="1371.0" rx="24.48" ry="3.5999999999999996" fill="#0F2233" opacity=".13"/><g transform="translate(690,1366.0) scale(0.72) rotate(0)"><ellipse cx="0" cy="-50.0" rx="57.0" ry="57.0" fill="#2B93CF" opacity=".30" filter="url(#glow)"/><ellipse cx="0" cy="-50.0" rx="50.0" ry="50.0" fill="url(#g-ocean)"/><ellipse cx="-17.0" cy="-74.0" rx="13.0" ry="8.0" fill="#fff" opacity=".35" transform="rotate(-24 -17.0 -74.0)"/><ellipse cx="-15.0" cy="-48.0" rx="8" ry="11.5" fill="#0F2233"/><circle cx="-12.2" cy="-52.2" r="2.8" fill="#fff"/><ellipse cx="15.0" cy="-48.0" rx="8" ry="11.5" fill="#0F2233"/><circle cx="17.8" cy="-52.2" r="2.8" fill="#fff"/></g><text x="690" y="1398" text-anchor="middle" font-size="14" fill="#333">Ocean</text><ellipse cx="870" cy="1371.0" rx="24.48" ry="3.5999999999999996" fill="#0F2233" opacity=".13"/><g transform="translate(870,1366.0) scale(0.72) rotate(0)"><ellipse cx="0" cy="-50.0" rx="57.0" ry="57.0" fill="#8C4FB0" opacity=".30" filter="url(#glow)"/><ellipse cx="0" cy="-50.0" rx="50.0" ry="50.0" fill="url(#g-dusk)"/><ellipse cx="-17.0" cy="-74.0" rx="13.0" ry="8.0" fill="#fff" opacity=".35" transform="rotate(-24 -17.0 -74.0)"/><path d="M-21.5,-48.0 a6.5,7 0 0 0 13,0 z" fill="#0F2233"/><path d="M-23.0,-48.0 h16" stroke="#0F2233" stroke-width="2.6" stroke-linecap="round"/><path d="M8.5,-48.0 a6.5,7 0 0 0 13,0 z" fill="#0F2233"/><path d="M7.0,-48.0 h16" stroke="#0F2233" stroke-width="2.6" stroke-linecap="round"/></g><text x="870" y="1398" text-anchor="middle" font-size="14" fill="#333">Dusk</text><ellipse cx="1050" cy="1371.0" rx="24.48" ry="3.5999999999999996" fill="#0F2233" opacity=".13"/><g transform="translate(1050,1366.0) scale(0.72) rotate(0)"><ellipse cx="0" cy="-50.0" rx="57.0" ry="57.0" fill="#E8699A" opacity=".30" filter="url(#glow)"/><ellipse cx="0" cy="-50.0" rx="50.0" ry="50.0" fill="url(#g-blossom)"/><ellipse cx="-17.0" cy="-74.0" rx="13.0" ry="8.0" fill="#fff" opacity=".35" transform="rotate(-24 -17.0 -74.0)"/><ellipse cx="-15.0" cy="-48.0" rx="6.5" ry="9.5" fill="#0F2233"/><circle cx="-12.8" cy="-51.4" r="2.2" fill="#fff"/><ellipse cx="15.0" cy="-48.0" rx="6.5" ry="9.5" fill="#0F2233"/><circle cx="17.2" cy="-51.4" r="2.2" fill="#fff"/></g><text x="1050" y="1398" text-anchor="middle" font-size="14" fill="#333">Blossom</text>
<text x="60" y="1472" font-size="12" fill="#888">Example only, issue 458. Vector, drawn in code like the orb today; colours from src/voice/orb-palettes.ts.</text>
</svg>